<svg width="20" height="27" viewBox="0 0 20 27" fill="none" xmlns="http://www.w3.org/2000/svg">
<path d="M5.39533 26C5.30289 26 5.21423 25.9631 5.14886 25.8974C5.08349 25.8316 5.04677 25.7425 5.04677 25.6496C5.04677 25.5566 5.08349 25.4675 5.14886 25.4018C5.21423 25.336 5.30289 25.2991 5.39533 25.2991H9.6441V17.1357L0.574191 5.82941C0.535048 5.77734 0.510349 5.71575 0.502614 5.65095C0.494879 5.58614 0.504385 5.52043 0.530163 5.46053C0.560276 5.40202 0.605424 5.3527 0.660912 5.31767C0.716401 5.28264 0.780207 5.26319 0.845702 5.26133H13.9369L17.239 1.12245C17.298 1.0533 17.3813 1.00992 17.4715 1.0015C17.5617 0.993082 17.6516 1.02028 17.7222 1.07733C17.7928 1.13439 17.8385 1.21683 17.8497 1.30718C17.8608 1.39754 17.8366 1.48872 17.7821 1.56143L14.8468 5.25027H19.1543C19.2198 5.25212 19.2836 5.27157 19.3391 5.3066C19.3946 5.34163 19.4397 5.39096 19.4698 5.44946C19.4956 5.50937 19.5051 5.57508 19.4974 5.63988C19.4897 5.70469 19.465 5.76627 19.4258 5.81835L10.3412 17.1357V25.2991H14.5973C14.6898 25.2991 14.7784 25.336 14.8438 25.4018C14.9092 25.4675 14.9459 25.5566 14.9459 25.6496C14.9459 25.7425 14.9092 25.8316 14.8438 25.8974C14.7784 25.9631 14.6898 26 14.5973 26H5.39533ZM7.96367 13.9117L10.0037 16.4533L15.9035 9.09773H14.1864C14.1512 8.85838 14.091 8.62345 14.0066 8.39685H16.4539L18.4095 5.96221H14.2745L12.2088 8.5444L12.3078 8.71778C12.507 9.12333 12.584 9.57856 12.5292 10.0275C12.4744 10.4764 12.2904 10.8995 11.9996 11.2446C11.7831 11.5449 11.5014 11.7916 11.1759 11.9661C10.8505 12.1406 10.4897 12.2383 10.1211 12.2517C9.9344 12.2517 9.74881 12.2231 9.57072 12.1668L9.37626 12.1004L7.96367 13.9117ZM7.51605 13.3547L8.84058 11.691L8.72684 11.5139C8.5458 11.2175 8.44933 10.8768 8.44799 10.529C8.45009 9.9487 8.64655 9.38602 9.00569 8.93173C9.22334 8.63294 9.50537 8.3875 9.83067 8.21375C10.156 8.04 10.5161 7.94244 10.8842 7.92836C11.091 7.92862 11.296 7.96611 11.4896 8.03903L11.6878 8.11281L13.3865 5.97328H1.58685L3.54246 8.40791H7.33259C7.20574 8.63209 7.09774 8.86653 7.00972 9.10879H4.09282L7.51605 13.3547ZM10.8732 8.62556C10.7668 8.62541 10.6607 8.63904 10.5577 8.66613C10.164 8.78129 9.81572 9.01686 9.56126 9.34012C9.30681 9.66337 9.15879 10.0583 9.13777 10.47C9.13595 10.4921 9.13595 10.5143 9.13777 10.5364C9.13127 10.6981 9.16084 10.8592 9.22433 11.0079C9.28782 11.1567 9.38361 11.2892 9.50468 11.3959C9.67758 11.5274 9.88964 11.5963 10.1064 11.5914C10.2615 11.5901 10.4153 11.5627 10.5614 11.5102C10.916 11.378 11.2245 11.1447 11.4493 10.8389C11.6625 10.5669 11.7982 10.2417 11.8419 9.8982C11.8828 9.70264 11.8703 9.49958 11.8057 9.31058C11.7411 9.12158 11.6268 8.9537 11.475 8.82475C11.3025 8.6919 11.0904 8.62169 10.8732 8.62556Z" fill="#333333" stroke="#333333"/>
</svg>
