<svg width="22" height="24" viewBox="0 0 22 24" fill="none" xmlns="http://www.w3.org/2000/svg">
<path d="M4.00949 2.04684H7.8858H7.9221C7.98907 2.013 8.0439 1.95924 8.07905 1.89296C8.11421 1.82667 8.12795 1.75112 8.1184 1.6767C8.10885 1.60228 8.07647 1.53265 8.02571 1.47739C7.97496 1.42213 7.90833 1.38396 7.83499 1.36812H4.00949C3.95498 1.35021 3.89699 1.34547 3.84029 1.3543C3.78359 1.36313 3.7298 1.38528 3.68332 1.41893C3.63684 1.45258 3.599 1.49677 3.5729 1.54788C3.54681 1.59898 3.5332 1.65554 3.5332 1.71293C3.5332 1.77031 3.54681 1.82688 3.5729 1.87798C3.599 1.92909 3.63684 1.97327 3.68332 2.00692C3.7298 2.04057 3.78359 2.06272 3.84029 2.07155C3.89699 2.08038 3.95498 2.07565 4.00949 2.05773V2.04684Z" fill="#333333" stroke="#333333"/>
<path d="M21.1335 10.5327H20.2334V10.0862C20.2403 9.62703 20.0974 9.17807 19.8262 8.80738C19.5551 8.43669 19.1705 8.16446 18.7308 8.03194H18.709C18.259 7.90854 18.2336 7.60729 18.2336 7.60729L17.798 3.71283H17.1084L17.5331 7.50204L17.5585 7.67625C17.5585 7.67625 17.602 8.40215 18.1646 8.53282C18.3306 8.58768 18.492 8.65565 18.6473 8.73607C18.9139 8.8492 19.1413 9.03818 19.3014 9.27952C19.4614 9.52086 19.547 9.80393 19.5474 10.0935V10.5399H12.4155V10.0935C12.4172 9.85197 12.4775 9.61446 12.5913 9.4014C12.7051 9.18835 12.869 9.00611 13.0688 8.87036C13.1332 8.82699 13.1998 8.78701 13.2684 8.75058C13.4359 8.65928 13.6122 8.58511 13.7947 8.52918C14.2411 8.4203 14.35 7.92669 14.379 7.73433L14.6948 3.71283H14.0052L13.6967 7.61818C13.6605 7.72597 13.5958 7.82198 13.5096 7.89608C13.4233 7.97019 13.3187 8.01964 13.2067 8.0392L13.1668 8.05735C12.7389 8.19697 12.367 8.47003 12.1057 8.83649C11.8445 9.20294 11.7075 9.6435 11.715 10.0935V10.5399H10.2849V10.0935C10.2918 9.63429 10.1489 9.18533 9.87776 8.81464C9.60661 8.44395 9.22205 8.17172 8.78231 8.0392L8.73876 8.02105C8.2887 7.89765 8.2887 7.60366 8.2887 7.60366L7.85316 3.70919H7.15992L7.58457 7.4984L7.60635 7.67262C7.60635 7.67262 7.64991 8.39852 8.21248 8.52918C8.37906 8.5826 8.54059 8.65062 8.69521 8.73244C8.96138 8.84573 9.18831 9.03485 9.34773 9.27624C9.50715 9.51763 9.592 9.8006 9.59169 10.0899V10.5363H2.47785V10.0899C2.47837 9.77864 2.57888 9.47582 2.76458 9.22605C2.86305 9.08447 2.98595 8.96157 3.12753 8.8631L3.32353 8.74333C3.49217 8.65169 3.66973 8.5775 3.85344 8.52193C4.01775 8.46134 4.16051 8.35359 4.26382 8.21218C4.36713 8.07078 4.42639 7.90202 4.43416 7.72706L4.75356 3.70557H4.06032L3.75181 7.61092C3.71846 7.71363 3.65919 7.80601 3.57972 7.87913C3.50024 7.95224 3.40325 8.00363 3.29812 8.02831H3.27272C2.84166 8.17136 2.46611 8.4456 2.19863 8.81265C1.93115 9.1797 1.78512 9.6212 1.78099 10.0754V10.5218H0.89176C0.795499 10.5218 0.703181 10.56 0.635114 10.6281C0.567048 10.6962 0.528809 10.7885 0.528809 10.8847V22.6552C0.533468 22.7483 0.573754 22.836 0.641323 22.9002C0.708891 22.9644 0.798562 23.0002 0.89176 23H21.1263C21.1717 23.0005 21.2167 22.9919 21.2588 22.9748C21.3009 22.9576 21.3391 22.9323 21.3712 22.9001C21.4033 22.868 21.4287 22.8298 21.4458 22.7878C21.463 22.7457 21.4716 22.7007 21.4711 22.6552V10.8775C21.4716 10.8327 21.4632 10.7882 21.4465 10.7466C21.4298 10.7051 21.4051 10.6672 21.3737 10.6352C21.3424 10.6031 21.305 10.5776 21.2638 10.56C21.2226 10.5424 21.1783 10.5331 21.1335 10.5327ZM20.7706 22.3032H1.24382V11.2223H20.7887L20.7706 22.3032Z" fill="#333333" stroke="#333333"/>
<path d="M13.947 2.04684H17.8342H17.8741C17.9411 2.013 17.9959 1.95924 18.0311 1.89296C18.0662 1.82667 18.08 1.75112 18.0704 1.6767C18.0609 1.60228 18.0285 1.53265 17.9777 1.47739C17.927 1.42213 17.8603 1.38396 17.787 1.36812H13.947C13.8925 1.35021 13.8345 1.34547 13.7778 1.3543C13.7211 1.36313 13.6673 1.38528 13.6208 1.41893C13.5743 1.45258 13.5365 1.49677 13.5104 1.54788C13.4843 1.59898 13.4707 1.65554 13.4707 1.71293C13.4707 1.77031 13.4843 1.82688 13.5104 1.87798C13.5365 1.92909 13.5743 1.97327 13.6208 2.00692C13.6673 2.04057 13.7211 2.06272 13.7778 2.07155C13.8345 2.08038 13.8925 2.07565 13.947 2.05773V2.04684Z" fill="#333333" stroke="#333333"/>
<path d="M4.94596 19.6826H17.0867C17.1767 19.6782 17.2619 19.6405 17.3256 19.5768C17.3893 19.513 17.4271 19.4279 17.4315 19.3378V14.1876C17.4345 14.1407 17.4278 14.0936 17.4117 14.0494C17.3957 14.0053 17.3707 13.9649 17.3383 13.9308C17.306 13.8967 17.2669 13.8697 17.2236 13.8514C17.1803 13.8331 17.1337 13.824 17.0867 13.8246H4.94596C4.8497 13.8246 4.75738 13.8629 4.68931 13.9309C4.62125 13.999 4.58301 14.0913 4.58301 14.1876V19.3378C4.58767 19.4309 4.62795 19.5186 4.69552 19.5828C4.76309 19.647 4.85276 19.6828 4.94596 19.6826ZM5.29076 14.5324H16.7455V19.0003H5.29076V14.5324Z" fill="#333333" stroke="#333333"/>
</svg>
