<svg width="26" height="26" viewBox="0 0 26 26" fill="none" xmlns="http://www.w3.org/2000/svg">
<path d="M17.8748 3.06042C15.9898 3.06042 14.1807 3.93792 12.9998 5.32459C11.819 3.93792 10.0098 3.06042 8.12484 3.06042C4.78817 3.06042 2.1665 5.68209 2.1665 9.01876C2.1665 13.1138 5.84984 16.4504 11.429 21.5204L12.9998 22.9396L14.5707 21.5096C20.1498 16.4504 23.8332 13.1138 23.8332 9.01876C23.8332 5.68209 21.2115 3.06042 17.8748 3.06042ZM13.1082 19.9063L12.9998 20.0146L12.8915 19.9063C7.73484 15.2371 4.33317 12.1496 4.33317 9.01876C4.33317 6.85209 5.95817 5.22709 8.12484 5.22709C9.79317 5.22709 11.4182 6.29959 11.9923 7.78376H14.0182C14.5815 6.29959 16.2065 5.22709 17.8748 5.22709C20.0415 5.22709 21.6665 6.85209 21.6665 9.01876C21.6665 12.1496 18.2648 15.2371 13.1082 19.9063Z" fill="#333333"/>
</svg>
