<svg width="32" height="32" viewBox="0 0 32 32" fill="none" xmlns="http://www.w3.org/2000/svg">
<path d="M16.0002 29C17.4668 29 18.6668 27.8 18.6668 26.3333H13.3335C13.3335 27.8 14.5335 29 16.0002 29ZM24.0002 21V14.3333C24.0002 10.24 21.8268 6.81333 18.0002 5.90667V5C18.0002 3.89333 17.1068 3 16.0002 3C14.8935 3 14.0002 3.89333 14.0002 5V5.90667C10.1868 6.81333 8.00016 10.2267 8.00016 14.3333V21L5.3335 23.6667V25H26.6668V23.6667L24.0002 21ZM21.3335 22.3333H10.6668V14.3333C10.6668 11.0267 12.6802 8.33333 16.0002 8.33333C19.3202 8.33333 21.3335 11.0267 21.3335 14.3333V22.3333Z" fill="black"/>
</svg>
