<svg width="24" height="25" viewBox="0 0 24 25" fill="none" xmlns="http://www.w3.org/2000/svg">
<g id="record_voice_over">
<path id="Vector" d="M9.00049 14C11.2105 14 13.0005 12.21 13.0005 10C13.0005 7.79 11.2105 6 9.00049 6C6.79049 6 5.00049 7.79 5.00049 10C5.00049 12.21 6.79049 14 9.00049 14ZM9.00049 8C10.1005 8 11.0005 8.9 11.0005 10C11.0005 11.1 10.1005 12 9.00049 12C7.90049 12 7.00049 11.1 7.00049 10C7.00049 8.9 7.90049 8 9.00049 8ZM9.00049 16C6.33049 16 1.00049 17.34 1.00049 20V22H17.0005V20C17.0005 17.34 11.6705 16 9.00049 16ZM3.00049 20C3.22049 19.28 6.31049 18 9.00049 18C11.7005 18 14.8005 19.29 15.0005 20H3.00049ZM15.0805 8.05C15.9205 9.23 15.9205 10.76 15.0805 11.94L16.7605 13.63C18.7805 11.61 18.7805 8.56 16.7605 6.36L15.0805 8.05ZM20.0705 3L18.4405 4.63C21.2105 7.65 21.2105 12.19 18.4405 15.37L20.0705 17C23.9705 13.11 23.9805 7.05 20.0705 3Z" fill="white"/>
</g>
</svg>
