<svg width="33" height="32" viewBox="0 0 33 32" fill="none" xmlns="http://www.w3.org/2000/svg">
<path fill-rule="evenodd" clip-rule="evenodd" d="M16.5 5.33329C10.4249 5.33329 5.5 10.1089 5.5 16C5.5 18.7988 6.61108 21.3465 8.43149 23.2503C8.50022 23.0298 8.59163 22.8132 8.71087 22.6065C9.11511 21.9056 9.62506 21.2575 10.2301 20.6845C10.8373 20.1093 11.5224 19.6267 12.2613 19.2454C11.1359 18.2008 10.4323 16.7408 10.4323 15.1111C10.4323 11.8906 13.1797 9.33329 16.5 9.33329C19.8203 9.33329 22.5677 11.8906 22.5677 15.1111C22.5677 16.7408 21.8641 18.2008 20.7387 19.2454C21.4776 19.6267 22.1627 20.1093 22.7699 20.6845C23.3749 21.2575 23.8849 21.9056 24.2891 22.6065C24.4084 22.8132 24.4998 23.0298 24.5685 23.2503C26.3889 21.3465 27.5 18.7988 27.5 16C27.5 10.1089 22.5751 5.33329 16.5 5.33329ZM21.919 25.2849C21.9724 25.0185 21.9992 24.7685 22 24.547C22.0013 24.181 21.9322 23.9829 21.889 23.9082C21.6133 23.4301 21.2644 22.9862 20.8484 22.5922C19.7005 21.505 18.137 20.8888 16.5 20.8888C14.863 20.8888 13.2995 21.505 12.1516 22.5922C11.7356 22.9862 11.3867 23.4301 11.111 23.9082C11.0678 23.9829 10.9987 24.181 11 24.547C11.0008 24.7685 11.0276 25.0185 11.081 25.2849C12.6796 26.1643 14.5276 26.6666 16.5 26.6666C18.4724 26.6666 20.3204 26.1643 21.919 25.2849ZM16.5 18.2222C18.363 18.2222 19.8177 16.7998 19.8177 15.1111C19.8177 13.4223 18.363 12 16.5 12C14.637 12 13.1823 13.4223 13.1823 15.1111C13.1823 16.7998 14.637 18.2222 16.5 18.2222ZM2.75 16C2.75 8.63616 8.90608 2.66663 16.5 2.66663C24.0939 2.66663 30.25 8.63616 30.25 16C30.25 20.743 27.6951 24.9064 23.8535 27.2682C21.726 28.5761 19.2021 29.3333 16.5 29.3333C13.7979 29.3333 11.274 28.5761 9.14652 27.2682C5.30494 24.9064 2.75 20.743 2.75 16Z" fill="#333333"/>
</svg>
